<?xml version="1.0" encoding="utf-8"?>
<!-- Generator: Adobe Illustrator 16.0.0, SVG Export Plug-In . SVG Version: 6.00 Build 0)  -->
<!DOCTYPE svg PUBLIC "-//W3C//DTD SVG 1.1//EN" "http://www.w3.org/Graphics/SVG/1.1/DTD/svg11.dtd">
<svg version="1.1" id="레이어_1" xmlns="http://www.w3.org/2000/svg" xmlns:xlink="http://www.w3.org/1999/xlink" x="0px"
	 y="0px" width="134.062px" height="134.062px" viewBox="0 0 134.062 134.062" enable-background="new 0 0 134.062 134.062"
	 xml:space="preserve">
<polygon fill="#FFFFFF" points="0,120 0,0 120,0 "/>
<g>
	<polygon fill="#FFAA00" points="41.7,106.423 47.356,100.768 33.137,97.861 	"/>
	<polygon fill="#FFAA00" points="83.942,59.292 78.754,64.48 80.371,67.753 87.215,60.91 	"/>
	<path fill="#FFAA00" d="M18.586,101.761l3.385-3.386l13.889,13.889l2.455-2.455L24.426,95.921l3.386-3.386l14.274,2.95
		l-8.611-8.612l3.385-3.386l13.889,13.889l5.924-5.924c-2.645,1.768-5.632,1.935-8.012-0.283l3.604-3.604
		c1.168,0.97,2.355,0.812,3.307-0.139c0.989-0.99,1.129-2.118,0.316-2.93c-2.574-2.574-8.138,5.762-13.028,0.792
		c-2.633-2.633-1.94-6.256,0.971-9.167c3.029-3.029,6.573-3.563,9.364-1.049l-3.662,3.663c-0.95-0.832-2.119-0.732-3.049,0.158
		c-0.832,0.792-1.03,1.822-0.159,2.693c2.415,2.416,8.197-5.544,12.851-0.891c1.961,1.961,2.35,4.926,0.506,7.749l5.699-5.7
		L51.492,68.855l5.484-5.484c3.405-3.405,7.028-3.188,9.582-0.634c2.297,2.297,2.871,5.999-0.673,9.543l-2.099,2.099l4.979,4.979
		l8.063-8.062l-8.864-18.913l3.92-3.92l18.914,8.863l6.643-6.643c-3.945,2.843-8.945,2.431-12.647-1.271
		c-4.158-4.158-4.197-9.979-0.1-14.078c3.307-3.306,7.662-3.939,11.465-1.722l-3.723,3.722c-1.762-0.614-3.406-0.158-4.692,1.128
		c-2.079,2.079-1.96,5.048,0.495,7.504c2.455,2.455,5.424,2.574,7.504,0.495c1.286-1.287,1.742-2.93,1.129-4.692l3.721-3.722
		c1.909,3.271,1.685,6.938-0.521,10.004l7.341-7.341L93.524,26.823l8.514-8.514l2.713,2.712l-5.128,5.128l2.812,2.812l4.534-4.534
		l2.613,2.613l-4.534,4.534l3.049,3.049l5.128-5.128l2.702,2.703l18.136-18.136h-120v120l18.413-18.413L18.586,101.761z"/>
	<polygon fill="#FFAA00" points="73.647,54.185 77.032,60.976 80.458,57.55 	"/>
	<path fill="#FFAA00" d="M59.451,66.36l-1.841,1.841l3.484,3.485l1.842-1.841c1.346-1.346,1.246-2.594,0.178-3.663
		C62.044,65.113,60.797,65.014,59.451,66.36z"/>
</g>
</svg>
