<?xml version="1.0" encoding="utf-8"?>
<!-- Generator: Adobe Illustrator 16.0.0, SVG Export Plug-In . SVG Version: 6.00 Build 0)  -->
<!DOCTYPE svg PUBLIC "-//W3C//DTD SVG 1.1//EN" "http://www.w3.org/Graphics/SVG/1.1/DTD/svg11.dtd">
<svg version="1.1" id="레이어_1" xmlns="http://www.w3.org/2000/svg" xmlns:xlink="http://www.w3.org/1999/xlink" x="0px"
	 y="0px" width="120px" height="120px" viewBox="0 0 120 120" enable-background="new 0 0 120 120" xml:space="preserve">
<g>
	<path fill="#FFAA00" d="M44.655,67.173v48.354H0V77.353c0-20.668,2.465-35.629,7.403-44.884
		C13.881,20.13,24.138,10.802,38.174,4.475l10.183,16.195C39.871,24.22,33.624,29.5,29.614,36.518
		c-4.013,7.021-6.247,17.236-6.709,30.655H44.655z M116.376,67.173v48.354H71.725V77.353c0-20.668,2.468-35.629,7.403-44.884
		c6.478-12.339,16.734-21.667,30.771-27.994l10.18,16.195c-8.483,3.551-14.73,8.831-18.74,15.848
		c-4.01,7.021-6.247,17.236-6.709,30.655H116.376z"/>
</g>
</svg>
